<mxfile host="app.diagrams.net" agent="Mozilla/5.0 (Windows NT 10.0; Win64; x64) AppleWebKit/537.36 (KHTML, like Gecko) Chrome/132.0.0.0 Safari/537.36" version="26.0.6">
  <diagram name="PÃ¡gina-1" id="_hPYY9Z8EhhyeKZLvN0L">
    <mxGraphModel dx="880" dy="529" grid="1" gridSize="10" guides="1" tooltips="1" connect="1" arrows="1" fold="1" page="1" pageScale="1" pageWidth="827" pageHeight="1169" math="0" shadow="0">
      <root>
        <mxCell id="0" />
        <mxCell id="1" parent="0" />
        <mxCell id="fX-eOHofn5ZqAN3v3y8v-4" value="" style="shape=singleArrow;direction=north;whiteSpace=wrap;html=1;" vertex="1" parent="1">
          <mxGeometry x="367" y="130" width="26" height="60" as="geometry" />
        </mxCell>
        <mxCell id="fX-eOHofn5ZqAN3v3y8v-7" value="&lt;font style=&quot;color: rgb(0, 102, 204); font-size: 11px;&quot;&gt;ELASTIC&lt;/font&gt;&lt;div&gt;&lt;font style=&quot;color: rgb(0, 102, 204); font-size: 11px;&quot;&gt;CLOUD&lt;/font&gt;&lt;/div&gt;" style="image;aspect=fixed;perimeter=ellipsePerimeter;html=1;align=center;shadow=0;dashed=0;spacingTop=3;image=img/lib/active_directory/internet_cloud.svg;" vertex="1" parent="1">
          <mxGeometry x="337.5" y="30" width="85" height="53.55" as="geometry" />
        </mxCell>
        <mxCell id="fX-eOHofn5ZqAN3v3y8v-9" value="ROUTER&lt;div&gt;IP 192.168.0.17&lt;/div&gt;" style="image;html=1;image=img/lib/clip_art/networking/Router_128x128.png" vertex="1" parent="1">
          <mxGeometry x="350" y="180" width="80" height="80" as="geometry" />
        </mxCell>
        <mxCell id="fX-eOHofn5ZqAN3v3y8v-11" value="&amp;nbsp; &amp;nbsp; &amp;nbsp; &amp;nbsp; &amp;nbsp; &amp;nbsp; &amp;nbsp; &amp;nbsp;&amp;nbsp;" style="shape=singleArrow;direction=north;whiteSpace=wrap;html=1;" vertex="1" parent="1">
          <mxGeometry x="367" y="300" width="26" height="60" as="geometry" />
        </mxCell>
        <mxCell id="fX-eOHofn5ZqAN3v3y8v-13" value="WAN" style="text;html=1;align=center;verticalAlign=middle;resizable=0;points=[];autosize=1;strokeColor=none;fillColor=none;" vertex="1" parent="1">
          <mxGeometry x="393" y="320" width="50" height="30" as="geometry" />
        </mxCell>
        <mxCell id="fX-eOHofn5ZqAN3v3y8v-14" value="PFSENSE" style="sketch=0;outlineConnect=0;fontColor=#232F3E;gradientColor=none;fillColor=#232F3D;strokeColor=none;dashed=0;verticalLabelPosition=bottom;verticalAlign=top;align=center;html=1;fontSize=12;fontStyle=0;aspect=fixed;pointerEvents=1;shape=mxgraph.aws4.generic_firewall;" vertex="1" parent="1">
          <mxGeometry x="350" y="370" width="78" height="66" as="geometry" />
        </mxCell>
      </root>
    </mxGraphModel>
  </diagram>
</mxfile>
